<svg xmlns="http://www.w3.org/2000/svg" viewBox="0 0 616.07 569.25"><title>Untitled-1</title><text transform="translate(37.84 512.99)" style="font-size:40.43199157714844px;fill:#005373;font-family:Raleway-Bold, Raleway;font-weight:700;letter-spacing:0.04999715067566726em">V<tspan x="29.23" y="0" style="letter-spacing:0.04500951221454393em">e</tspan><tspan x="55.31" y="0" style="letter-spacing:0.05000922728211066em">terinar</tspan><tspan x="198.4" y="0" style="letter-spacing:0.02501065194427703em">y</tspan><tspan x="221.4" y="0" style="letter-spacing:0.019008578541908277em"> </tspan><tspan x="231.83" y="0" style="letter-spacing:0.04701422888414798em">A</tspan><tspan x="261.03" y="0" style="letter-spacing:0.05000922728211066em">ssessme</tspan><tspan x="443.41" y="0" style="letter-spacing:0.04799243400606321em">n</tspan><tspan x="469.69" y="0" style="letter-spacing:0.05000922728211066em">t</tspan><tspan x="36.81" y="47">Lapa</tspan><tspan x="141" y="47" style="letter-spacing:0.03600036380776911em">r</tspan><tspan x="158.11" y="47" style="letter-spacing:0.04701422888414798em">o</tspan><tspan x="184.47" y="47" style="letter-spacing:0.05000922728211066em">s</tspan><tspan x="207.03" y="47" style="letter-spacing:0.044007153879741905em">c</tspan><tspan x="231.61" y="47">opic Skills</tspan></text><circle cx="275.41" cy="101.43" r="98.43" style="fill:#cebb58;stroke:#cebb58;stroke-miterlimit:10;stroke-width:6px"/><text transform="translate(0 421.57)" style="font-size:181.27517700195312px;fill:#005373;font-family:Norwester-Regular, Norwester;letter-spacing:0.25001354564228206em">V<tspan x="143.75" y="0" style="letter-spacing:0.36000398831159686em">A</tspan><tspan x="315.24" y="0" style="letter-spacing:0.3100088223701561em">L</tspan><tspan x="460.26" y="0" style="letter-spacing:0.36000398831159686em">S</tspan></text><path d="M226.51,49.64l23.14-3,3.82,4.93-.07,1.92,2.45,3.12a41.52,41.52,0,0,0-3.89,6.1c-1,2.36-1,9.72.64,13.62s14,35,14,35l19.06,40.17,1.59,4.74s2.54.53,3.23-.73S318.18,103,318.18,103l7.92-16s1.47-5.55.28-8-2.55-4.89-2.55-4.89L325,68.94l1.19-.79,1.17-.25,21.1-2.14s2.27-.87,3.29,1.88a16.48,16.48,0,0,1,1.17,7.56c-.24,2.39.46,5-2.23,8.88s-20,23.76-20,23.76-13,19.85-15.62,25.84-14.19,30.69-14.19,30.69l-1.73,3.78-13,1.29-8.58-.3L257.2,118s-8.53-16.61-11.11-20.54S234.37,80.78,231,76.82s-8.56-11.34-8.09-15.48.28-8,1.95-9.85Z" transform="translate(-7.51 -10.31)" style="fill:#005373"/><path d="M277.49,169.13,277,181.34a44.41,44.41,0,0,0,5.07,2.68,22.3,22.3,0,0,0,10.43.43,55.82,55.82,0,0,0,6.11-2.35l.49-14Z" transform="translate(-7.51 -10.31)" style="fill:#005373"/><path d="M234.15,64.3l5.46-.61a3.78,3.78,0,0,0-.13,3.67c1.06,1.8,3.44,6.84,3.39,8.28A9.46,9.46,0,0,0,243.7,79s-.71,1.89-2.24-.08a70.89,70.89,0,0,1-5.29-8.82C235.44,68.5,234.15,64.3,234.15,64.3Z" transform="translate(-7.51 -10.31)" style="fill:#cebb58"/><path d="M332.29,79.27l10.25-.44s.89,1.9-1,4.5S336,90.76,336,90.76s-3.43,2-4.23,1.93-2.31,2.16-1.19-2.44,1.87-7.77,1.77-9.37Z" transform="translate(-7.51 -10.31)" style="fill:#cebb58"/></svg>