<svg xmlns="http://www.w3.org/2000/svg" viewBox="0 0 536.27 568.6"><title>logo</title><path d="M53.22,488.59,61,510.31l7.68-21.71h5.86L63.32,517.3H58.63L47.35,488.59Z" transform="translate(-15 -4.31)" style="fill:#005373"/><path d="M88.88,517.71a11.76,11.76,0,0,1-4.61-.87A10.39,10.39,0,0,1,78.5,511a11.16,11.16,0,0,1-.79-4.16,11.8,11.8,0,0,1,.77-4.27A10.41,10.41,0,0,1,80.71,499a10.63,10.63,0,0,1,3.54-2.41,11.8,11.8,0,0,1,4.67-.89,11.51,11.51,0,0,1,4.63.89A10.67,10.67,0,0,1,97,499a10.16,10.16,0,0,1,2.18,3.48,11.58,11.58,0,0,1,.75,4.12q0,.53,0,1a4.18,4.18,0,0,1-.1.81H83.46a6.27,6.27,0,0,0,.61,2.22,5.44,5.44,0,0,0,3,2.71,5.72,5.72,0,0,0,2,.36,6.25,6.25,0,0,0,3.05-.79,4.17,4.17,0,0,0,2-2.08l4.65,1.29a9.45,9.45,0,0,1-3.74,4A11.59,11.59,0,0,1,88.88,517.71Zm5.5-12.78a5.64,5.64,0,0,0-1.76-3.82,5.52,5.52,0,0,0-7.5,0,5.55,5.55,0,0,0-1.19,1.66,5.83,5.83,0,0,0-.55,2.14Z" transform="translate(-15 -4.31)" style="fill:#005373"/><path d="M117.83,516.21a23.71,23.71,0,0,1-2.69,1,11.42,11.42,0,0,1-3.34.49,7.7,7.7,0,0,1-2.12-.28,4.64,4.64,0,0,1-1.74-.91,4.42,4.42,0,0,1-1.19-1.62,5.84,5.84,0,0,1-.44-2.41V500.28h-2.75v-4.17h2.75v-6.87h5.42v6.87h4.49v4.17h-4.49v10.35a1.89,1.89,0,0,0,.61,1.6,2.32,2.32,0,0,0,1.46.46,5,5,0,0,0,1.66-.28q.81-.28,1.29-.49Z" transform="translate(-15 -4.31)" style="fill:#005373"/><path d="M132.42,517.71a11.76,11.76,0,0,1-4.61-.87A10.39,10.39,0,0,1,122,511a11.16,11.16,0,0,1-.79-4.16,11.8,11.8,0,0,1,.77-4.27,10.41,10.41,0,0,1,2.22-3.52,10.63,10.63,0,0,1,3.54-2.41,11.8,11.8,0,0,1,4.67-.89,11.51,11.51,0,0,1,4.63.89,10.67,10.67,0,0,1,3.48,2.39,10.16,10.16,0,0,1,2.18,3.48,11.58,11.58,0,0,1,.75,4.12q0,.53,0,1a4.18,4.18,0,0,1-.1.81H127a6.27,6.27,0,0,0,.61,2.22,5.44,5.44,0,0,0,3,2.71,5.72,5.72,0,0,0,2,.36,6.25,6.25,0,0,0,3.05-.79,4.17,4.17,0,0,0,2-2.08l4.65,1.29a9.45,9.45,0,0,1-3.74,4A11.59,11.59,0,0,1,132.42,517.71Zm5.5-12.78a5.64,5.64,0,0,0-1.76-3.82,5.52,5.52,0,0,0-7.5,0,5.55,5.55,0,0,0-1.19,1.66,5.83,5.83,0,0,0-.55,2.14Z" transform="translate(-15 -4.31)" style="fill:#005373"/><path d="M161.45,500.8a10.69,10.69,0,0,0-4.41,1,5.56,5.56,0,0,0-2.79,2.73V517.3h-5.42V496.11h5v4.53a9.87,9.87,0,0,1,2.85-3.52,6,6,0,0,1,3.7-1.33l.67,0,.42.06Z" transform="translate(-15 -4.31)" style="fill:#005373"/><path d="M166.5,493.16v-5.38h5.42v5.38Zm0,24.14V496.11h5.42V517.3Z" transform="translate(-15 -4.31)" style="fill:#005373"/><path d="M198.44,517.3H193V505.41a6.2,6.2,0,0,0-.89-3.72,2.92,2.92,0,0,0-2.47-1.17,4.65,4.65,0,0,0-1.66.32,6.11,6.11,0,0,0-1.6.91,7.38,7.38,0,0,0-1.35,1.39,5.52,5.52,0,0,0-.89,1.78V517.3h-5.42V496.11h4.89V500a8,8,0,0,1,3.4-3.15,10.89,10.89,0,0,1,5-1.13,6.38,6.38,0,0,1,3.23.73,5.26,5.26,0,0,1,1.94,1.9,8,8,0,0,1,1,2.67,17.54,17.54,0,0,1,.26,3Z" transform="translate(-15 -4.31)" style="fill:#005373"/><path d="M210.94,517.71a8,8,0,0,1-2.87-.51,6.88,6.88,0,0,1-2.3-1.42,6.58,6.58,0,0,1-1.52-2.12,6.43,6.43,0,0,1-.55-2.67,5.89,5.89,0,0,1,.67-2.77,6.36,6.36,0,0,1,1.86-2.16,9.22,9.22,0,0,1,2.85-1.39,12.43,12.43,0,0,1,3.64-.51,15.65,15.65,0,0,1,2.77.24,11.3,11.3,0,0,1,2.41.69v-1.21a4.25,4.25,0,0,0-1.19-3.23,5,5,0,0,0-3.54-1.13,9.37,9.37,0,0,0-3.32.61,15.38,15.38,0,0,0-3.32,1.78l-1.66-3.44a15.65,15.65,0,0,1,8.81-2.71q4.57,0,7.1,2.24a8.22,8.22,0,0,1,2.53,6.49v6.59a1.81,1.81,0,0,0,.32,1.21,1.57,1.57,0,0,0,1.13.4v4.61a12.71,12.71,0,0,1-1.44.22q-.67.06-1.15.06a3.76,3.76,0,0,1-2.35-.71,2.9,2.9,0,0,1-1-1.8l-.12-1.17a9.37,9.37,0,0,1-3.44,2.83A9.86,9.86,0,0,1,210.94,517.71Zm1.54-4a7.07,7.07,0,0,0,2.61-.49A4.74,4.74,0,0,0,217,512a2,2,0,0,0,.89-1.54V508a13.34,13.34,0,0,0-2.1-.59,11.39,11.39,0,0,0-2.18-.22,5.79,5.79,0,0,0-3.44,1,2.85,2.85,0,0,0-1.33,2.41,2.89,2.89,0,0,0,1.05,2.28A3.82,3.82,0,0,0,212.47,513.74Z" transform="translate(-15 -4.31)" style="fill:#005373"/><path d="M243.12,500.8a10.69,10.69,0,0,0-4.41,1,5.56,5.56,0,0,0-2.79,2.73V517.3h-5.42V496.11h5v4.53a9.87,9.87,0,0,1,2.85-3.52,6,6,0,0,1,3.7-1.33l.67,0,.42.06Z" transform="translate(-15 -4.31)" style="fill:#005373"/><path d="M248.46,521.42a10.06,10.06,0,0,0,1.33.28,8.15,8.15,0,0,0,1.05.08,2.24,2.24,0,0,0,.93-.18,2.21,2.21,0,0,0,.79-.67,6.38,6.38,0,0,0,.77-1.35,22.8,22.8,0,0,0,.83-2.28l-8.41-21.19h5.58l5.78,16.5,5.09-16.5h5.09l-8.94,25.39a7.43,7.43,0,0,1-2.71,3.74,7.31,7.31,0,0,1-4.33,1.31,9.8,9.8,0,0,1-2.87-.44Z" transform="translate(-15 -4.31)" style="fill:#005373"/><path d="M279.27,517.3l11.32-28.71h4.53L306.4,517.3h-5.9l-2.63-7.16H287.8l-2.63,7.16Zm13.58-22.68-4.12,11.6h8.13Z" transform="translate(-15 -4.31)" style="fill:#005373"/><path d="M319.17,517.71a18.75,18.75,0,0,1-2.69-.2,22.68,22.68,0,0,1-2.73-.57,18.82,18.82,0,0,1-2.55-.89,12.3,12.3,0,0,1-2.14-1.17l2.18-3.68a14.35,14.35,0,0,0,7.8,2.63,5,5,0,0,0,2.67-.61,1.93,1.93,0,0,0,1-1.74,1.77,1.77,0,0,0-1.15-1.68,21.76,21.76,0,0,0-3.86-1.19,32.2,32.2,0,0,1-3.52-1,8.58,8.58,0,0,1-2.35-1.21,4.18,4.18,0,0,1-1.29-1.58,5,5,0,0,1-.4-2.1,6.31,6.31,0,0,1,2.45-5.12,8.31,8.31,0,0,1,2.71-1.39,11.3,11.3,0,0,1,3.38-.49,14.92,14.92,0,0,1,4.51.71,18.16,18.16,0,0,1,4.18,1.92l-2.22,3.36a14.7,14.7,0,0,0-3.36-1.64,10.28,10.28,0,0,0-3.15-.51,4.87,4.87,0,0,0-2.45.57,1.94,1.94,0,0,0-1,1.82,1.64,1.64,0,0,0,1,1.58,17.88,17.88,0,0,0,3.38,1.09q2.26.57,3.86,1.13A10.86,10.86,0,0,1,326,507a4.5,4.5,0,0,1,1.5,1.68,5.16,5.16,0,0,1,.46,2.28,6.15,6.15,0,0,1-.63,2.79,6.08,6.08,0,0,1-1.76,2.12,8.15,8.15,0,0,1-2.77,1.33A13.24,13.24,0,0,1,319.17,517.71Z" transform="translate(-15 -4.31)" style="fill:#005373"/><path d="M341.73,517.71a18.75,18.75,0,0,1-2.69-.2,22.68,22.68,0,0,1-2.73-.57,18.82,18.82,0,0,1-2.55-.89,12.3,12.3,0,0,1-2.14-1.17l2.18-3.68a14.35,14.35,0,0,0,7.8,2.63,5,5,0,0,0,2.67-.61,1.93,1.93,0,0,0,1-1.74,1.77,1.77,0,0,0-1.15-1.68,21.76,21.76,0,0,0-3.86-1.19,32.2,32.2,0,0,1-3.52-1,8.58,8.58,0,0,1-2.35-1.21,4.18,4.18,0,0,1-1.29-1.58,5,5,0,0,1-.4-2.1,6.31,6.31,0,0,1,2.45-5.12,8.31,8.31,0,0,1,2.71-1.39,11.3,11.3,0,0,1,3.38-.49,14.92,14.92,0,0,1,4.51.71,18.16,18.16,0,0,1,4.18,1.92l-2.22,3.36a14.7,14.7,0,0,0-3.36-1.64,10.28,10.28,0,0,0-3.15-.51,4.87,4.87,0,0,0-2.45.57,1.94,1.94,0,0,0-1,1.82,1.64,1.64,0,0,0,1,1.58,17.88,17.88,0,0,0,3.38,1.09q2.26.57,3.86,1.13a10.86,10.86,0,0,1,2.63,1.29,4.5,4.5,0,0,1,1.5,1.68,5.16,5.16,0,0,1,.46,2.28,6.15,6.15,0,0,1-.63,2.79,6.08,6.08,0,0,1-1.76,2.12,8.15,8.15,0,0,1-2.77,1.33A13.24,13.24,0,0,1,341.73,517.71Z" transform="translate(-15 -4.31)" style="fill:#005373"/><path d="M365.79,517.71a11.76,11.76,0,0,1-4.61-.87,10.39,10.39,0,0,1-5.76-5.84,11.16,11.16,0,0,1-.79-4.16,11.8,11.8,0,0,1,.77-4.27,10.41,10.41,0,0,1,2.22-3.52,10.63,10.63,0,0,1,3.54-2.41,11.8,11.8,0,0,1,4.67-.89,11.51,11.51,0,0,1,4.63.89,10.67,10.67,0,0,1,3.48,2.39,10.15,10.15,0,0,1,2.18,3.48,11.57,11.57,0,0,1,.75,4.12c0,.35,0,.69,0,1a4.07,4.07,0,0,1-.1.81H360.37a6.27,6.27,0,0,0,.61,2.22,5.44,5.44,0,0,0,3,2.71,5.72,5.72,0,0,0,2,.36A6.25,6.25,0,0,0,369,513a4.17,4.17,0,0,0,2-2.08l4.65,1.29a9.45,9.45,0,0,1-3.74,4A11.59,11.59,0,0,1,365.79,517.71Zm5.5-12.78a5.64,5.64,0,0,0-1.76-3.82,5.52,5.52,0,0,0-7.5,0,5.55,5.55,0,0,0-1.19,1.66,5.83,5.83,0,0,0-.55,2.14Z" transform="translate(-15 -4.31)" style="fill:#005373"/><path d="M390.58,517.71a18.76,18.76,0,0,1-2.69-.2,22.67,22.67,0,0,1-2.73-.57,18.82,18.82,0,0,1-2.55-.89,12.28,12.28,0,0,1-2.14-1.17l2.18-3.68a14.36,14.36,0,0,0,7.8,2.63,5,5,0,0,0,2.67-.61,1.93,1.93,0,0,0,1-1.74,1.78,1.78,0,0,0-1.15-1.68,21.74,21.74,0,0,0-3.86-1.19,32.2,32.2,0,0,1-3.52-1,8.6,8.6,0,0,1-2.35-1.21,4.2,4.2,0,0,1-1.29-1.58,5,5,0,0,1-.4-2.1,6.31,6.31,0,0,1,2.45-5.12,8.33,8.33,0,0,1,2.71-1.39,11.31,11.31,0,0,1,3.38-.49,14.92,14.92,0,0,1,4.51.71,18.17,18.17,0,0,1,4.18,1.92l-2.22,3.36a14.71,14.71,0,0,0-3.36-1.64,10.29,10.29,0,0,0-3.15-.51,4.86,4.86,0,0,0-2.45.57,1.94,1.94,0,0,0-1,1.82,1.64,1.64,0,0,0,1,1.58,17.86,17.86,0,0,0,3.38,1.09q2.26.57,3.86,1.13a10.87,10.87,0,0,1,2.63,1.29,4.5,4.5,0,0,1,1.5,1.68,5.16,5.16,0,0,1,.46,2.28,6.14,6.14,0,0,1-.63,2.79,6.08,6.08,0,0,1-1.76,2.12,8.16,8.16,0,0,1-2.77,1.33A13.25,13.25,0,0,1,390.58,517.71Z" transform="translate(-15 -4.31)" style="fill:#005373"/><path d="M413.14,517.71a18.76,18.76,0,0,1-2.69-.2,22.67,22.67,0,0,1-2.73-.57,18.82,18.82,0,0,1-2.55-.89,12.28,12.28,0,0,1-2.14-1.17l2.18-3.68a14.36,14.36,0,0,0,7.8,2.63,5,5,0,0,0,2.67-.61,1.93,1.93,0,0,0,1-1.74,1.78,1.78,0,0,0-1.15-1.68,21.74,21.74,0,0,0-3.86-1.19,32.2,32.2,0,0,1-3.52-1,8.6,8.6,0,0,1-2.35-1.21,4.2,4.2,0,0,1-1.29-1.58,5,5,0,0,1-.4-2.1,6.31,6.31,0,0,1,2.45-5.12,8.33,8.33,0,0,1,2.71-1.39,11.31,11.31,0,0,1,3.38-.49,14.92,14.92,0,0,1,4.51.71,18.17,18.17,0,0,1,4.18,1.92l-2.22,3.36a14.71,14.71,0,0,0-3.36-1.64,10.29,10.29,0,0,0-3.15-.51,4.86,4.86,0,0,0-2.45.57,1.94,1.94,0,0,0-1,1.82,1.64,1.64,0,0,0,1,1.58,17.86,17.86,0,0,0,3.38,1.09q2.26.57,3.86,1.13a10.87,10.87,0,0,1,2.63,1.29,4.5,4.5,0,0,1,1.5,1.68,5.16,5.16,0,0,1,.46,2.28,6.14,6.14,0,0,1-.63,2.79,6.08,6.08,0,0,1-1.76,2.12,8.16,8.16,0,0,1-2.77,1.33A13.25,13.25,0,0,1,413.14,517.71Z" transform="translate(-15 -4.31)" style="fill:#005373"/><path d="M460.24,517.3h-5.42V505.41a6.2,6.2,0,0,0-.89-3.72,2.88,2.88,0,0,0-2.43-1.17,4.5,4.5,0,0,0-3,1.23,6.78,6.78,0,0,0-2,3.21V517.3h-5.42V505.41a6.31,6.31,0,0,0-.87-3.72,2.83,2.83,0,0,0-2.41-1.17,4.61,4.61,0,0,0-3,1.21,6.6,6.6,0,0,0-2,3.19V517.3h-5.42V496.11h4.89V500a8.09,8.09,0,0,1,3.21-3.17,9.6,9.6,0,0,1,4.67-1.11,5.93,5.93,0,0,1,4.1,1.29,6.07,6.07,0,0,1,1.88,3.19,9.15,9.15,0,0,1,3.27-3.33,8.84,8.84,0,0,1,4.53-1.15,6.29,6.29,0,0,1,3.19.73,5.26,5.26,0,0,1,1.94,1.9A8,8,0,0,1,460,501a17.45,17.45,0,0,1,.26,3Z" transform="translate(-15 -4.31)" style="fill:#005373"/><path d="M476.78,517.71a11.76,11.76,0,0,1-4.61-.87,10.39,10.39,0,0,1-5.76-5.84,11.16,11.16,0,0,1-.79-4.16,11.81,11.81,0,0,1,.77-4.27,10.4,10.4,0,0,1,2.22-3.52,10.62,10.62,0,0,1,3.54-2.41,11.8,11.8,0,0,1,4.67-.89,11.51,11.51,0,0,1,4.63.89,10.67,10.67,0,0,1,3.48,2.39,10.17,10.17,0,0,1,2.18,3.48,11.57,11.57,0,0,1,.75,4.12q0,.53,0,1a4.15,4.15,0,0,1-.1.81H471.36a6.27,6.27,0,0,0,.61,2.22,5.45,5.45,0,0,0,3,2.71,5.72,5.72,0,0,0,2,.36A6.25,6.25,0,0,0,480,513a4.18,4.18,0,0,0,2-2.08l4.65,1.29a9.45,9.45,0,0,1-3.74,4A11.59,11.59,0,0,1,476.78,517.71Zm5.5-12.78a5.64,5.64,0,0,0-1.76-3.82,5.52,5.52,0,0,0-7.5,0,5.56,5.56,0,0,0-1.19,1.66,5.84,5.84,0,0,0-.55,2.14Z" transform="translate(-15 -4.31)" style="fill:#005373"/><path d="M512.88,517.3h-5.42V505.41a6.2,6.2,0,0,0-.89-3.72,2.92,2.92,0,0,0-2.47-1.17,4.65,4.65,0,0,0-1.66.32,6.1,6.1,0,0,0-1.6.91,7.36,7.36,0,0,0-1.36,1.39,5.5,5.5,0,0,0-.89,1.78V517.3h-5.42V496.11h4.89V500a8,8,0,0,1,3.4-3.15,10.89,10.89,0,0,1,5-1.13,6.38,6.38,0,0,1,3.23.73,5.26,5.26,0,0,1,1.94,1.9,8,8,0,0,1,1,2.67,17.64,17.64,0,0,1,.26,3Z" transform="translate(-15 -4.31)" style="fill:#005373"/><path d="M532.21,516.21a23.59,23.59,0,0,1-2.69,1,11.42,11.42,0,0,1-3.33.49,7.7,7.7,0,0,1-2.12-.28,4.64,4.64,0,0,1-1.74-.91,4.42,4.42,0,0,1-1.19-1.62,5.84,5.84,0,0,1-.45-2.41V500.28h-2.75v-4.17h2.75v-6.87h5.42v6.87h4.49v4.17H526.1v10.35a1.89,1.89,0,0,0,.61,1.6,2.32,2.32,0,0,0,1.46.46,5,5,0,0,0,1.66-.28q.81-.28,1.29-.49Z" transform="translate(-15 -4.31)" style="fill:#005373"/><path d="M87.16,564.3V535.59h5.58v23.81h14.64v4.89Z" transform="translate(-15 -4.31)" style="fill:#005373"/><path d="M118.25,564.71a8,8,0,0,1-2.87-.51,6.88,6.88,0,0,1-2.3-1.42,6.58,6.58,0,0,1-1.52-2.12A6.43,6.43,0,0,1,111,558a5.89,5.89,0,0,1,.67-2.77,6.36,6.36,0,0,1,1.86-2.16,9.22,9.22,0,0,1,2.85-1.39,12.43,12.43,0,0,1,3.64-.51,15.65,15.65,0,0,1,2.77.24,11.3,11.3,0,0,1,2.41.69v-1.21a4.25,4.25,0,0,0-1.19-3.23,5,5,0,0,0-3.54-1.13,9.37,9.37,0,0,0-3.32.61,15.38,15.38,0,0,0-3.32,1.78l-1.66-3.44a15.65,15.65,0,0,1,8.81-2.71q4.57,0,7.1,2.24a8.22,8.22,0,0,1,2.53,6.49v6.59a1.81,1.81,0,0,0,.32,1.21,1.57,1.57,0,0,0,1.13.4v4.61a12.71,12.71,0,0,1-1.44.22q-.67.06-1.15.06a3.76,3.76,0,0,1-2.35-.71,2.9,2.9,0,0,1-1-1.8L126,560.9a9.37,9.37,0,0,1-3.44,2.83A9.86,9.86,0,0,1,118.25,564.71Zm1.54-4a7.07,7.07,0,0,0,2.61-.49,4.74,4.74,0,0,0,1.92-1.29,2,2,0,0,0,.89-1.54V555a13.34,13.34,0,0,0-2.1-.59,11.39,11.39,0,0,0-2.18-.22,5.79,5.79,0,0,0-3.44,1,2.85,2.85,0,0,0-1.33,2.41,2.89,2.89,0,0,0,1.05,2.28A3.82,3.82,0,0,0,119.79,560.74Z" transform="translate(-15 -4.31)" style="fill:#005373"/><path d="M150.47,564.71a8.27,8.27,0,0,1-4.33-1.11,7.89,7.89,0,0,1-2.91-3v12.33h-5.42v-29.8h4.73v3.64a8.64,8.64,0,0,1,3-2.93,8.43,8.43,0,0,1,4.29-1.07,9.06,9.06,0,0,1,4,.87A9.83,9.83,0,0,1,157,546a10.92,10.92,0,0,1,2.06,3.48,12,12,0,0,1,.75,4.22,13.36,13.36,0,0,1-.69,4.33,11.07,11.07,0,0,1-1.92,3.52,8.89,8.89,0,0,1-3,2.35A8.34,8.34,0,0,1,150.47,564.71Zm-1.78-4.61a4.86,4.86,0,0,0,2.24-.53,5.43,5.43,0,0,0,1.76-1.42,6.64,6.64,0,0,0,1.13-2.06,7.4,7.4,0,0,0,.4-2.43,6.85,6.85,0,0,0-.44-2.49,6.17,6.17,0,0,0-1.23-2,5.75,5.75,0,0,0-1.86-1.33,5.58,5.58,0,0,0-2.33-.49,5.07,5.07,0,0,0-1.58.26,5.54,5.54,0,0,0-1.5.75,6.59,6.59,0,0,0-1.23,1.13,4.7,4.7,0,0,0-.83,1.42v5a7.2,7.2,0,0,0,2.22,3A5.09,5.09,0,0,0,148.69,560.1Z" transform="translate(-15 -4.31)" style="fill:#005373"/><path d="M171.21,564.71a8,8,0,0,1-2.87-.51,6.88,6.88,0,0,1-2.3-1.42,6.58,6.58,0,0,1-1.52-2.12A6.43,6.43,0,0,1,164,558a5.89,5.89,0,0,1,.67-2.77,6.36,6.36,0,0,1,1.86-2.16,9.22,9.22,0,0,1,2.85-1.39,12.43,12.43,0,0,1,3.64-.51,15.65,15.65,0,0,1,2.77.24,11.3,11.3,0,0,1,2.41.69v-1.21a4.25,4.25,0,0,0-1.19-3.23,5,5,0,0,0-3.54-1.13,9.37,9.37,0,0,0-3.32.61,15.38,15.38,0,0,0-3.32,1.78l-1.66-3.44a15.65,15.65,0,0,1,8.81-2.71q4.57,0,7.1,2.24a8.22,8.22,0,0,1,2.53,6.49v6.59a1.81,1.81,0,0,0,.32,1.21,1.57,1.57,0,0,0,1.13.4v4.61a12.71,12.71,0,0,1-1.44.22q-.67.06-1.15.06a3.76,3.76,0,0,1-2.35-.71,2.9,2.9,0,0,1-1-1.8L179,560.9a9.37,9.37,0,0,1-3.44,2.83A9.86,9.86,0,0,1,171.21,564.71Zm1.54-4a7.07,7.07,0,0,0,2.61-.49,4.74,4.74,0,0,0,1.92-1.29,2,2,0,0,0,.89-1.54V555a13.34,13.34,0,0,0-2.1-.59,11.39,11.39,0,0,0-2.18-.22,5.79,5.79,0,0,0-3.44,1,2.85,2.85,0,0,0-1.33,2.41,2.89,2.89,0,0,0,1.05,2.28A3.82,3.82,0,0,0,172.75,560.74Z" transform="translate(-15 -4.31)" style="fill:#005373"/><path d="M203.4,547.8a10.69,10.69,0,0,0-4.41,1,5.56,5.56,0,0,0-2.79,2.73V564.3h-5.42V543.11h5v4.53a9.87,9.87,0,0,1,2.85-3.52,6,6,0,0,1,3.7-1.33l.67,0,.42.06Z" transform="translate(-15 -4.31)" style="fill:#005373"/><path d="M217.71,564.71a11.63,11.63,0,0,1-4.65-.89,10.44,10.44,0,0,1-3.5-2.41,10.61,10.61,0,0,1-2.2-3.5,11.41,11.41,0,0,1-.77-4.16,11.53,11.53,0,0,1,.77-4.21,10.61,10.61,0,0,1,2.2-3.5,10.45,10.45,0,0,1,3.5-2.41,11.65,11.65,0,0,1,4.65-.89,11.51,11.51,0,0,1,4.63.89,10.51,10.51,0,0,1,3.48,2.41,10.63,10.63,0,0,1,2.2,3.5,11.54,11.54,0,0,1,.77,4.21,11.42,11.42,0,0,1-.77,4.16,10.8,10.8,0,0,1-2.18,3.5,10.22,10.22,0,0,1-3.48,2.41A11.63,11.63,0,0,1,217.71,564.71Zm-5.54-11a7.38,7.38,0,0,0,.42,2.57,6.26,6.26,0,0,0,1.17,2,5.23,5.23,0,0,0,1.76,1.31,5.36,5.36,0,0,0,4.37,0,5.24,5.24,0,0,0,1.76-1.31,6.22,6.22,0,0,0,1.17-2,7.55,7.55,0,0,0,.42-2.59,7.44,7.44,0,0,0-.42-2.55,6.24,6.24,0,0,0-1.17-2,5.24,5.24,0,0,0-1.76-1.31,5.17,5.17,0,0,0-2.18-.47,5,5,0,0,0-2.18.49,5.48,5.48,0,0,0-1.76,1.33,6.21,6.21,0,0,0-1.17,2A7.43,7.43,0,0,0,212.17,553.75Z" transform="translate(-15 -4.31)" style="fill:#005373"/><path d="M242.62,564.71a18.75,18.75,0,0,1-2.69-.2,22.68,22.68,0,0,1-2.73-.57,18.82,18.82,0,0,1-2.55-.89,12.3,12.3,0,0,1-2.14-1.17l2.18-3.68a14.35,14.35,0,0,0,7.8,2.63,5,5,0,0,0,2.67-.61,1.93,1.93,0,0,0,1-1.74A1.77,1.77,0,0,0,245,556.8a21.76,21.76,0,0,0-3.86-1.19,32.2,32.2,0,0,1-3.52-1,8.58,8.58,0,0,1-2.35-1.21,4.18,4.18,0,0,1-1.29-1.58,5,5,0,0,1-.4-2.1,6.31,6.31,0,0,1,2.45-5.12,8.31,8.31,0,0,1,2.71-1.39,11.3,11.3,0,0,1,3.38-.49,14.92,14.92,0,0,1,4.51.71,18.16,18.16,0,0,1,4.18,1.92l-2.22,3.36a14.7,14.7,0,0,0-3.36-1.64,10.28,10.28,0,0,0-3.15-.51,4.87,4.87,0,0,0-2.45.57,1.94,1.94,0,0,0-1,1.82,1.64,1.64,0,0,0,1,1.58,17.88,17.88,0,0,0,3.38,1.09q2.26.57,3.86,1.13a10.86,10.86,0,0,1,2.63,1.29,4.5,4.5,0,0,1,1.5,1.68,5.16,5.16,0,0,1,.46,2.28,6.15,6.15,0,0,1-.63,2.79,6.08,6.08,0,0,1-1.76,2.12,8.15,8.15,0,0,1-2.77,1.33A13.24,13.24,0,0,1,242.62,564.71Z" transform="translate(-15 -4.31)" style="fill:#005373"/><path d="M255.52,553.71a11.53,11.53,0,0,1,.77-4.21,10.25,10.25,0,0,1,2.22-3.48,10.84,10.84,0,0,1,3.52-2.39,11.65,11.65,0,0,1,4.65-.89,11.16,11.16,0,0,1,5.92,1.5,9.56,9.56,0,0,1,3.66,3.92l-5.3,1.62a4.76,4.76,0,0,0-1.82-1.8,5.1,5.1,0,0,0-2.51-.63,5.17,5.17,0,0,0-2.18.47,5.37,5.37,0,0,0-1.76,1.29,6,6,0,0,0-1.17,2,7.55,7.55,0,0,0-.42,2.59,7.23,7.23,0,0,0,.44,2.59,6.5,6.5,0,0,0,1.19,2,5.23,5.23,0,0,0,1.76,1.31,5.06,5.06,0,0,0,2.14.46,5.19,5.19,0,0,0,2.69-.73,4.09,4.09,0,0,0,1.72-1.78l5.3,1.62a8.91,8.91,0,0,1-3.6,4,11.31,11.31,0,0,1-6,1.54,11.63,11.63,0,0,1-4.65-.89,10.53,10.53,0,0,1-5.76-5.92A11.32,11.32,0,0,1,255.52,553.71Z" transform="translate(-15 -4.31)" style="fill:#005373"/><path d="M291.22,564.71a11.63,11.63,0,0,1-4.65-.89,10.44,10.44,0,0,1-3.5-2.41,10.61,10.61,0,0,1-2.2-3.5,11.41,11.41,0,0,1-.77-4.16,11.53,11.53,0,0,1,.77-4.21,10.61,10.61,0,0,1,2.2-3.5,10.45,10.45,0,0,1,3.5-2.41,11.65,11.65,0,0,1,4.65-.89,11.51,11.51,0,0,1,4.63.89,10.51,10.51,0,0,1,3.48,2.41,10.63,10.63,0,0,1,2.2,3.5,11.54,11.54,0,0,1,.77,4.21,11.42,11.42,0,0,1-.77,4.16,10.8,10.8,0,0,1-2.18,3.5,10.22,10.22,0,0,1-3.48,2.41A11.63,11.63,0,0,1,291.22,564.71Zm-5.54-11a7.38,7.38,0,0,0,.42,2.57,6.26,6.26,0,0,0,1.17,2,5.23,5.23,0,0,0,1.76,1.31,5.36,5.36,0,0,0,4.37,0,5.24,5.24,0,0,0,1.76-1.31,6.22,6.22,0,0,0,1.17-2,7.55,7.55,0,0,0,.42-2.59,7.44,7.44,0,0,0-.42-2.55,6.24,6.24,0,0,0-1.17-2,5.24,5.24,0,0,0-1.76-1.31,5.17,5.17,0,0,0-2.18-.47,5,5,0,0,0-2.18.49,5.48,5.48,0,0,0-1.76,1.33,6.21,6.21,0,0,0-1.17,2A7.43,7.43,0,0,0,285.68,553.75Z" transform="translate(-15 -4.31)" style="fill:#005373"/><path d="M320.53,564.71a8.27,8.27,0,0,1-4.33-1.11,7.89,7.89,0,0,1-2.91-3v12.33h-5.42v-29.8h4.73v3.64a8.64,8.64,0,0,1,3-2.93,8.43,8.43,0,0,1,4.29-1.07,9.06,9.06,0,0,1,4,.87A9.83,9.83,0,0,1,327,546a10.92,10.92,0,0,1,2.06,3.48,12,12,0,0,1,.75,4.22,13.36,13.36,0,0,1-.69,4.33,11.07,11.07,0,0,1-1.92,3.52,8.89,8.89,0,0,1-3,2.35A8.34,8.34,0,0,1,320.53,564.71Zm-1.78-4.61a4.86,4.86,0,0,0,2.24-.53,5.43,5.43,0,0,0,1.76-1.42,6.64,6.64,0,0,0,1.13-2.06,7.4,7.4,0,0,0,.4-2.43,6.85,6.85,0,0,0-.44-2.49,6.17,6.17,0,0,0-1.23-2,5.75,5.75,0,0,0-1.86-1.33,5.58,5.58,0,0,0-2.33-.49,5.07,5.07,0,0,0-1.58.26,5.54,5.54,0,0,0-1.5.75,6.59,6.59,0,0,0-1.23,1.13,4.7,4.7,0,0,0-.83,1.42v5a7.2,7.2,0,0,0,2.22,3A5.09,5.09,0,0,0,318.75,560.1Z" transform="translate(-15 -4.31)" style="fill:#005373"/><path d="M335.45,540.16v-5.38h5.42v5.38Zm0,24.14V543.11h5.42V564.3Z" transform="translate(-15 -4.31)" style="fill:#005373"/><path d="M346.41,553.71a11.53,11.53,0,0,1,.77-4.21A10.25,10.25,0,0,1,349.4,546a10.84,10.84,0,0,1,3.52-2.39,11.65,11.65,0,0,1,4.65-.89,11.16,11.16,0,0,1,5.92,1.5,9.56,9.56,0,0,1,3.66,3.92l-5.3,1.62A4.76,4.76,0,0,0,360,548a5.1,5.1,0,0,0-2.51-.63,5.17,5.17,0,0,0-2.18.47,5.37,5.37,0,0,0-1.76,1.29,6,6,0,0,0-1.17,2,7.55,7.55,0,0,0-.42,2.59,7.23,7.23,0,0,0,.44,2.59,6.5,6.5,0,0,0,1.19,2,5.23,5.23,0,0,0,1.76,1.31,5.06,5.06,0,0,0,2.14.46,5.19,5.19,0,0,0,2.69-.73,4.09,4.09,0,0,0,1.72-1.78l5.3,1.62a8.91,8.91,0,0,1-3.6,4,11.31,11.31,0,0,1-6,1.54,11.63,11.63,0,0,1-4.65-.89,10.53,10.53,0,0,1-5.76-5.92A11.32,11.32,0,0,1,346.41,553.71Z" transform="translate(-15 -4.31)" style="fill:#005373"/><path d="M401.92,543.11a7,7,0,0,0-1-.77,12.45,12.45,0,0,0-1.82-1,15.71,15.71,0,0,0-2.33-.79,10.19,10.19,0,0,0-2.55-.32,5.71,5.71,0,0,0-3.44.85,2.81,2.81,0,0,0-1.13,2.39,2.45,2.45,0,0,0,.42,1.48,3.65,3.65,0,0,0,1.23,1,10.32,10.32,0,0,0,2,.81q1.23.36,2.85.77,2.1.57,3.82,1.21a10.38,10.38,0,0,1,2.91,1.62,6.68,6.68,0,0,1,1.84,2.33,7.72,7.72,0,0,1,.65,3.33,8.3,8.3,0,0,1-.87,3.94,7.38,7.38,0,0,1-2.32,2.65,10,10,0,0,1-3.4,1.48,17.32,17.32,0,0,1-4,.46,21.62,21.62,0,0,1-6.39-1,19.72,19.72,0,0,1-5.66-2.75l2.47-4.81a7.7,7.7,0,0,0,1.31,1,19.87,19.87,0,0,0,2.24,1.17,17.43,17.43,0,0,0,2.87,1,12.92,12.92,0,0,0,3.23.4q4.61,0,4.61-3a2.49,2.49,0,0,0-.53-1.62,4.47,4.47,0,0,0-1.5-1.13,14.24,14.24,0,0,0-2.34-.89q-1.38-.4-3.07-.85a26.11,26.11,0,0,1-3.58-1.23,9.75,9.75,0,0,1-2.53-1.56,5.68,5.68,0,0,1-1.52-2.1,7.42,7.42,0,0,1-.51-2.87,8.93,8.93,0,0,1,.81-3.88,7.85,7.85,0,0,1,2.24-2.83,10.17,10.17,0,0,1,3.34-1.72,13.79,13.79,0,0,1,4.08-.59,15.86,15.86,0,0,1,5.58,1,20.83,20.83,0,0,1,4.45,2.24Z" transform="translate(-15 -4.31)" style="fill:#005373"/><path d="M425.57,564.3l-6.15-9.18L416.51,558v6.31H411.1V534.79h5.42V552.7l8.49-9.54h5.78l-7.92,9,8.49,12.17Z" transform="translate(-15 -4.31)" style="fill:#005373"/><path d="M435.64,540.16v-5.38h5.42v5.38Zm0,24.14V543.11h5.42V564.3Z" transform="translate(-15 -4.31)" style="fill:#005373"/><path d="M447.85,534.79h5.42v22.48q0,2.47,2.22,2.47a3.92,3.92,0,0,0,1-.16,11.6,11.6,0,0,0,1.11-.36l.73,4.33a10.41,10.41,0,0,1-2.55.81,13.92,13.92,0,0,1-2.63.28,5.42,5.42,0,0,1-3.94-1.35,5.13,5.13,0,0,1-1.39-3.86Z" transform="translate(-15 -4.31)" style="fill:#005373"/><path d="M462.69,534.79h5.42v22.48q0,2.47,2.22,2.47a3.92,3.92,0,0,0,1-.16,11.6,11.6,0,0,0,1.11-.36l.73,4.33a10.41,10.41,0,0,1-2.55.81,13.92,13.92,0,0,1-2.63.28,5.42,5.42,0,0,1-3.94-1.35,5.13,5.13,0,0,1-1.39-3.86Z" transform="translate(-15 -4.31)" style="fill:#005373"/><path d="M485.93,564.71a18.75,18.75,0,0,1-2.69-.2,22.63,22.63,0,0,1-2.73-.57A18.78,18.78,0,0,1,478,563a12.32,12.32,0,0,1-2.14-1.17L478,558.2a14.36,14.36,0,0,0,7.8,2.63,5,5,0,0,0,2.67-.61,1.93,1.93,0,0,0,1-1.74,1.78,1.78,0,0,0-1.15-1.68,21.8,21.8,0,0,0-3.86-1.19,32.14,32.14,0,0,1-3.52-1,8.58,8.58,0,0,1-2.35-1.21,4.18,4.18,0,0,1-1.29-1.58,5,5,0,0,1-.4-2.1,6.31,6.31,0,0,1,2.45-5.12A8.31,8.31,0,0,1,482,543.2a11.3,11.3,0,0,1,3.38-.49,14.92,14.92,0,0,1,4.51.71,18.14,18.14,0,0,1,4.18,1.92l-2.22,3.36a14.71,14.71,0,0,0-3.36-1.64,10.29,10.29,0,0,0-3.15-.51,4.87,4.87,0,0,0-2.45.57,1.94,1.94,0,0,0-1,1.82,1.64,1.64,0,0,0,1,1.58,17.85,17.85,0,0,0,3.38,1.09q2.26.57,3.86,1.13a10.88,10.88,0,0,1,2.63,1.29,4.5,4.5,0,0,1,1.5,1.68,5.17,5.17,0,0,1,.46,2.28,6.14,6.14,0,0,1-.63,2.79,6.07,6.07,0,0,1-1.76,2.12,8.15,8.15,0,0,1-2.77,1.33A13.24,13.24,0,0,1,485.93,564.71Z" transform="translate(-15 -4.31)" style="fill:#005373"/><circle cx="269.92" cy="101.43" r="98.43" style="fill:#cebb58;stroke:#cebb58;stroke-miterlimit:10;stroke-width:6px"/><path d="M99,280.86c2.72,0,3.81,1.45,3.26,4L71.68,422.62c-.54,2.18-1.81,3.26-4,3.26H49.57c-2.17,0-3.44-1.09-4-3.26L15.13,284.85c-.54-2.54.54-4,3.26-4H35.61c2.17,0,3.44,1.09,4,3.26l19,97.16,19.21-97.16c.54-2.17,1.81-3.26,4-3.26Z" transform="translate(-15 -4.31)" style="fill:#005373"/><path d="M230.46,425.88a2.79,2.79,0,0,1-2.9-2.54l-5.07-26.46H190.22l-4.89,26.46a2.79,2.79,0,0,1-2.9,2.54H163c-2,0-2.9-1.09-2.36-3.08l30.09-139.4a2.82,2.82,0,0,1,3.08-2.54H219a2.82,2.82,0,0,1,3.08,2.54l30.09,139.4c.36,2-.36,3.08-2.54,3.08Zm-24.11-113.3-11.6,63.27H218Z" transform="translate(-15 -4.31)" style="fill:#005373"/><path d="M358.42,402h43.14a2.59,2.59,0,0,1,2.9,2.9V423c0,2-.91,2.9-2.9,2.9H336.67a2.59,2.59,0,0,1-2.9-2.9V283.76a2.67,2.67,0,0,1,2.9-2.9h18.85a2.59,2.59,0,0,1,2.9,2.9Z" transform="translate(-15 -4.31)" style="fill:#005373"/><path d="M525.17,280.86c17,0,26.1,9.06,26.1,26.1v19.21a2.59,2.59,0,0,1-2.9,2.9H529.52a2.67,2.67,0,0,1-2.9-2.9V312c0-4.71-2.36-7.25-7.25-7.25h-8.7c-4.53,0-7.25,2.54-7.25,7.25v25l43.14,14.14c3.08,1.27,4.71,3.26,4.71,6.71v41.88c0,17-9.06,26.1-26.1,26.1h-20.3c-16.86,0-26.1-9.06-26.1-26.1v-19a2.59,2.59,0,0,1,2.9-2.9h18.85c2,0,2.9.91,2.9,2.9v14c0,4.89,2.72,7.25,7.25,7.25h8.7c4.71,0,7.25-2.36,7.25-7.25V370.59l-43-14.14a6.46,6.46,0,0,1-4.89-6.71V307c0-17,9.24-26.1,26.1-26.1Z" transform="translate(-15 -4.31)" style="fill:#005373"/><path d="M228.51,43.64l23.14-3,3.82,4.93-.07,1.92,2.45,3.12a41.52,41.52,0,0,0-3.89,6.1c-1,2.36-1,9.72.64,13.62s14,35,14,35l19.06,40.17,1.59,4.74s2.54.53,3.23-.73S320.18,97,320.18,97l7.92-16s1.47-5.55.28-8-2.55-4.89-2.55-4.89L327,62.94l1.19-.79,1.17-.25,21.1-2.14s2.27-.87,3.29,1.88a16.48,16.48,0,0,1,1.17,7.56c-.24,2.39.46,5-2.23,8.88s-20,23.76-20,23.76-13,19.85-15.62,25.84-14.19,30.69-14.19,30.69l-1.73,3.78-13,1.29-8.58-.3L259.2,112s-8.53-16.61-11.11-20.54S236.37,74.78,233,70.82s-8.56-11.34-8.09-15.48.28-8,1.95-9.85Z" transform="translate(-15 -4.31)" style="fill:#005373"/><path d="M279.49,163.13,279,175.34a44.41,44.41,0,0,0,5.07,2.68,22.3,22.3,0,0,0,10.43.43,55.82,55.82,0,0,0,6.11-2.35l.49-14Z" transform="translate(-15 -4.31)" style="fill:#005373"/><path d="M236.15,58.3l5.46-.61a3.78,3.78,0,0,0-.13,3.67c1.06,1.8,3.44,6.84,3.39,8.28A9.46,9.46,0,0,0,245.7,73s-.71,1.89-2.24-.08a70.89,70.89,0,0,1-5.29-8.82C237.44,62.5,236.15,58.3,236.15,58.3Z" transform="translate(-15 -4.31)" style="fill:#cebb58"/><path d="M334.29,73.27l10.25-.44s.89,1.9-1,4.5S338,84.76,338,84.76s-3.43,2-4.23,1.93-2.31,2.16-1.19-2.44,1.87-7.77,1.77-9.37Z" transform="translate(-15 -4.31)" style="fill:#cebb58"/></svg>