<svg xmlns="http://www.w3.org/2000/svg" viewBox="0 0 856.1 202.9"><style type="text/css">
	.st0{enable-background:new    ;}
	.st1{fill:#005373;}
	.st2{fill:#CEBB58;stroke:#CEBB58;stroke-width:6;stroke-miterlimit:10;}
	.st3{fill:#CEBB58;}
</style><title>mobile-logo</title><g class="st0"><path class="st1" d="M329.6 27c2.7 0 3.8 1.5 3.3 4l-30.6 137.8c-0.5 2.2-1.8 3.3-4 3.3h-18.1c-2.2 0-3.4-1.1-4-3.3L245.6 31c-0.5-2.5 0.5-4 3.3-4h17.2c2.2 0 3.4 1.1 4 3.3l19 97.2 19.2-97.2c0.5-2.2 1.8-3.3 4-3.3H329.6z"/></g><g class="st0"><path class="st1" d="M461 172c-1.6 0-2.5-0.9-2.9-2.5L453 143h-32.3l-4.9 26.5c-0.4 1.6-1.3 2.5-2.9 2.5h-19.4c-2 0-2.9-1.1-2.4-3.1l30.1-139.4c0.4-1.8 1.5-2.5 3.1-2.5h25.2c1.6 0 2.7 0.7 3.1 2.5l30.1 139.4c0.4 2-0.4 3.1-2.5 3.1H461zM436.9 58.7L425.3 122h23.2L436.9 58.7z"/></g><g class="st0"><path class="st1" d="M589 148.1h43.1c2 0 2.9 1.1 2.9 2.9v18.1c0 2-0.9 2.9-2.9 2.9h-64.9c-1.8 0-2.9-0.9-2.9-2.9V29.9c0-1.8 1.1-2.9 2.9-2.9h18.9c2 0 2.9 1.1 2.9 2.9V148.1z"/></g><g class="st0"><path class="st1" d="M755.8 27c17 0 26.1 9.1 26.1 26.1v19.2c0 1.8-0.9 2.9-2.9 2.9h-18.9c-1.8 0-2.9-1.1-2.9-2.9V58.2c0-4.7-2.4-7.3-7.3-7.3h-8.7c-4.5 0-7.3 2.5-7.3 7.3v25l43.1 14.1c3.1 1.3 4.7 3.3 4.7 6.7v41.9c0 17-9.1 26.1-26.1 26.1h-20.3c-16.9 0-26.1-9.1-26.1-26.1v-19c0-2 1.1-2.9 2.9-2.9h18.9c2 0 2.9 0.9 2.9 2.9v14c0 4.9 2.7 7.3 7.3 7.3h8.7c4.7 0 7.3-2.4 7.3-7.3v-24.1l-43-14.1c-3.3-1.1-4.9-3.3-4.9-6.7V53.1c0-17 9.2-26.1 26.1-26.1H755.8z"/></g><circle class="st2" cx="101.4" cy="101.4" r="98.4"/><path class="st1" d="M45 39.3l23.1-3 3.8 4.9 -0.1 1.9 2.4 3.1c-1.5 1.9-2.7 3.9-3.8 6.1 -1 2.4-1 9.7 0.6 13.6s14 35 14 35l19.1 40.2 1.6 4.7c0 0 2.5 0.5 3.2-0.7s27.7-52.5 27.7-52.5l7.9-16c0 0 1.5-5.6 0.3-8s-2.6-4.9-2.6-4.9l1.2-5.2 1.2-0.8 1.2-0.2 21.1-2.1c0 0 2.3-0.9 3.3 1.9 1 2.4 1.4 5 1.2 7.6 -0.2 2.4 0.5 5-2.2 8.9s-20 23.8-20 23.8 -13 19.8-15.6 25.8 -14.2 30.7-14.2 30.7l-1.7 3.8 -13 1.3 -8.6-0.3 -20.4-51.1c0 0-8.5-16.6-11.1-20.5S52.9 70.5 49.5 66.5 40.9 55.2 41.4 51s0.3-8 1.9-9.9L45 39.3z"/><path class="st1" d="M96 158.8L95.5 171c1.6 1 3.3 1.9 5.1 2.7 3.4 1 7 1.1 10.4 0.4 2.1-0.7 4.1-1.4 6.1-2.4l0.5-14L96 158.8z"/><path class="st3" d="M52.7 54l5.5-0.6c-0.7 1.1-0.7 2.5-0.1 3.7 1.1 1.8 3.4 6.8 3.4 8.3 0.1 1.2 0.3 2.3 0.8 3.4 0 0-0.7 1.9-2.2-0.1 -2-2.8-3.7-5.8-5.3-8.8C54 58.2 52.7 54 52.7 54z"/><path class="st3" d="M150.8 69l10.2-0.4c0 0 0.9 1.9-1 4.5s-5.5 7.4-5.5 7.4 -3.4 2-4.2 1.9 -2.3 2.2-1.2-2.4 1.9-7.8 1.8-9.4L150.8 69z"/></svg>
