<svg xmlns="http://www.w3.org/2000/svg" viewBox="0 0 856.09 202.86"><title>mobile-logo</title><text transform="translate(240.02 172.01)" style="font-size:181.27517700195312px;fill:#005373;font-family:Norwester-Regular, Norwester;letter-spacing:0.25001354564228206em">V<tspan x="143.75" y="0" style="letter-spacing:0.36000398831159686em">A</tspan><tspan x="315.24" y="0" style="letter-spacing:0.3100088223701561em">L</tspan><tspan x="460.26" y="0" style="letter-spacing:0.36000398831159686em">S</tspan></text><circle cx="101.43" cy="101.43" r="98.43" style="fill:#cebb58;stroke:#cebb58;stroke-miterlimit:10;stroke-width:6px"/><path d="M61.51,48.63l23.14-3,3.82,4.93-.07,1.92,2.45,3.12A41.52,41.52,0,0,0,87,61.68c-1,2.36-1,9.72.64,13.62s14,35,14,35l19.06,40.17,1.59,4.74s2.54.53,3.23-.73S153.18,102,153.18,102l7.92-16s1.47-5.55.28-8-2.55-4.89-2.55-4.89L160,67.93l1.19-.79,1.17-.25,21.1-2.14s2.27-.87,3.29,1.88a16.48,16.48,0,0,1,1.17,7.56c-.24,2.39.46,5-2.23,8.88s-20,23.76-20,23.76-13,19.85-15.62,25.84-14.19,30.69-14.19,30.69l-1.73,3.78-13,1.29-8.58-.3L92.2,117S83.67,100.43,81.09,96.5,69.37,79.77,66,75.82,57.43,64.48,57.9,60.34s.28-8,1.95-9.85Z" transform="translate(-16.49 -9.31)" style="fill:#005373"/><path d="M112.49,168.12,112,180.33a44.41,44.41,0,0,0,5.07,2.68,22.3,22.3,0,0,0,10.43.43,55.82,55.82,0,0,0,6.11-2.35l.49-14Z" transform="translate(-16.49 -9.31)" style="fill:#005373"/><path d="M69.15,63.29l5.46-.61a3.78,3.78,0,0,0-.13,3.67c1.06,1.8,3.44,6.84,3.39,8.28A9.46,9.46,0,0,0,78.7,78s-.71,1.89-2.24-.08a70.89,70.89,0,0,1-5.29-8.82C70.44,67.5,69.15,63.29,69.15,63.29Z" transform="translate(-16.49 -9.31)" style="fill:#cebb58"/><path d="M167.29,78.27l10.25-.44s.89,1.9-1,4.5S171,89.75,171,89.75s-3.43,2-4.23,1.93-2.31,2.16-1.19-2.44,1.87-7.77,1.77-9.37Z" transform="translate(-16.49 -9.31)" style="fill:#cebb58"/></svg>